<svg width="151" height="94" viewBox="0 0 151 94" fill="none" xmlns="http://www.w3.org/2000/svg">
<mask id="path-1-inside-1" fill="white">
<path d="M0 10C0 4.47715 4.47715 0 10 0H141C146.523 0 151 4.47715 151 10V73C151 78.5229 146.523 83 141 83L85.5 84L80.5 93.6622L75 84H10C4.47715 84 0 79.5229 0 74V10Z"/>
</mask>
<path d="M0 10C0 4.47715 4.47715 0 10 0H141C146.523 0 151 4.47715 151 10V73C151 78.5229 146.523 83 141 83L85.5 84L80.5 93.6622L75 84H10C4.47715 84 0 79.5229 0 74V10Z" transform="translate(0 0.33783)" fill="white"/>
<path d="M141 83V82H140.991L140.982 82.0002L141 83ZM75 84L75.8691 83.5053L75.5814 83H75V84ZM80.5 93.6622L79.6309 94.1569L80.5419 95.7571L81.3881 94.1218L80.5 93.6622ZM85.5 84L85.482 83.0002L84.8859 83.0109L84.6119 83.5404L85.5 84ZM10 1H141V-1H10V1ZM150 10V73H152V10H150ZM1 74V10H-1V74H1ZM150 73C150 77.9706 145.971 82 141 82V84C147.075 84 152 79.0751 152 73H150ZM141 1C145.971 1 150 5.02944 150 10H152C152 3.92487 147.075 -1 141 -1V1ZM10 -1C3.92487 -1 -1 3.92487 -1 10H1C1 5.02944 5.02944 1 10 1V-1ZM75 83H10V85H75V83ZM81.3691 93.1675L75.8691 83.5053L74.1309 84.4947L79.6309 94.1569L81.3691 93.1675ZM140.982 82.0002L85.482 83.0002L85.518 84.9998L141.018 83.9998L140.982 82.0002ZM84.6119 83.5404L79.6119 93.2026L81.3881 94.1218L86.3881 84.4596L84.6119 83.5404ZM-1 74C-1 80.0751 3.92487 85 10 85V83C5.02944 83 1 78.9706 1 74H-1Z" transform="translate(0 0.33783)" fill="#31393C" mask="url(#path-1-inside-1)"/>
</svg>
